STARTFONT 2.1
FONT -sun-chevaraoutline-medium-r-normal--14-140-75-75-p-117-adobe-fontspecific
SIZE 14 75 75
FONTBOUNDINGBOX 29 19 -4 -4

STARTPROPERTIES 28
FOUNDRY "sun"
FAMILY_NAME "chevaraoutline"
WEIGHT_NAME "medium"
SLANT "r"
SETWIDTH_NAME "normal"
ADD_STYLE_NAME ""
PIXEL_SIZE 15
POINT_SIZE 140
RESOLUTION_X 75
RESOLUTION_Y 75
SPACING "p"
AVERAGE_WIDTH 117
CHARSET_REGISTRY "adobe"
CHARSET_ENCODING "fontspecific"
COPYRIGHT "© 1999 Sun Microsystems, Inc."
RAW_PIXELSIZE 1000
RAW_POINTSIZE 964
RAW_ASCENT 1047
RAW_DESCENT 285
RAW_AVERAGE_WIDTH 8051
FACE_NAME "ChevaraOutlineNormal¿ŸD@5"
_XMBDFED_INFO "Edited with xmbdfed 2.4."
WEIGHT 10
X_HEIGHT -1
QUAD_WIDTH 11
DEFAULT_CHAR 4
FONT_DESCENT 4
FONT_ASCENT 15
ENDPROPERTIES

CHARS 202

STARTCHAR char32
ENCODING 32
SWIDTH 43 0
DWIDTH 7 0
BBX 0 0 0 0
BITMAP
ENDCHAR

STARTCHAR char33
ENCODING 33
SWIDTH 30 0
DWIDTH 5 0
BBX 4 11 2 0
BITMAP
40
A0
B0
A0
60
60
20
20
E0
A0
60
ENDCHAR

STARTCHAR char34
ENCODING 34
SWIDTH 43 0
DWIDTH 7 0
BBX 7 4 1 7
BITMAP
04
EA
6A
26
ENDCHAR

STARTCHAR char35
ENCODING 35
SWIDTH 55 0
DWIDTH 9 0
BBX 8 11 0 0
BITMAP
12
12
14
7F
24
24
24
FE
24
28
28
ENDCHAR

STARTCHAR char36
ENCODING 36
SWIDTH 29 0
DWIDTH 15 0
BBX 13 14 3 -2
BITMAP
0500
0D00
37B0
6550
A530
9F10
85F0
7D18
4708
65F8
7D10
67F0
0500
0500
ENDCHAR

STARTCHAR char37
ENCODING 37
SWIDTH 4 0
DWIDTH 21 0
BBX 20 10 3 0
BITMAP
7E0400
650400
A50800
A513C0
652660
766A70
1C4A50
008A50
010660
0103C0
ENDCHAR

STARTCHAR char38
ENCODING 38
SWIDTH 29 0
DWIDTH 15 0
BBX 14 10 3 0
BITMAP
1F80
1480
1680
137C
1958
65F0
A4A0
9240
9A60
7FF0
ENDCHAR

STARTCHAR char39
ENCODING 39
SWIDTH 24 0
DWIDTH 4 0
BBX 3 4 1 7
BITMAP
20
40
A0
E0
ENDCHAR

STARTCHAR char40
ENCODING 40
SWIDTH 36 0
DWIDTH 6 0
BBX 5 11 2 0
BITMAP
08
30
50
60
A0
A0
A0
A0
60
70
18
ENDCHAR

STARTCHAR char41
ENCODING 41
SWIDTH 36 0
DWIDTH 6 0
BBX 5 11 1 0
BITMAP
80
60
30
28
28
28
28
28
30
70
40
ENDCHAR

STARTCHAR char42
ENCODING 42
SWIDTH 30 0
DWIDTH 5 0
BBX 4 4 1 6
BITMAP
20
F0
70
50
ENDCHAR

STARTCHAR char43
ENCODING 43
SWIDTH 61 0
DWIDTH 10 0
BBX 9 8 2 0
BITMAP
0800
0800
0800
FF80
0800
0800
0800
0800
ENDCHAR

STARTCHAR char44
ENCODING 44
SWIDTH 30 0
DWIDTH 5 0
BBX 3 5 1 -2
BITMAP
40
A0
E0
20
C0
ENDCHAR

STARTCHAR char45
ENCODING 45
SWIDTH 43 0
DWIDTH 7 0
BBX 5 1 2 4
BITMAP
F8
ENDCHAR

STARTCHAR char46
ENCODING 46
SWIDTH 30 0
DWIDTH 5 0
BBX 3 3 1 0
BITMAP
40
A0
E0
ENDCHAR

STARTCHAR char47
ENCODING 47
SWIDTH 55 0
DWIDTH 9 0
BBX 7 10 2 0
BITMAP
02
04
04
08
10
20
20
40
80
80
ENDCHAR

STARTCHAR char48
ENCODING 48
SWIDTH 23 0
DWIDTH 14 0
BBX 12 10 3 0
BITMAP
3F80
5140
5120
9110
9110
9110
90B0
50A0
6940
1F80
ENDCHAR

STARTCHAR char49
ENCODING 49
SWIDTH 55 0
DWIDTH 9 0
BBX 8 11 2 0
BITMAP
04
3C
C4
24
24
24
24
24
24
24
FF
ENDCHAR

STARTCHAR char50
ENCODING 50
SWIDTH 11 0
DWIDTH 12 0
BBX 11 10 3 0
BITMAP
FF80
E4C0
E4C0
A4C0
6580
1E00
2020
7FC0
C040
3FC0
ENDCHAR

STARTCHAR char51
ENCODING 51
SWIDTH 17 0
DWIDTH 13 0
BBX 12 10 2 0
BITMAP
3FC0
5120
5120
2140
0F80
2160
D120
9120
5120
3FC0
ENDCHAR

STARTCHAR char52
ENCODING 52
SWIDTH 17 0
DWIDTH 13 0
BBX 12 11 2 0
BITMAP
0080
0180
0280
0480
1C80
2480
4480
4480
FCF0
0480
1FC0
ENDCHAR

STARTCHAR char53
ENCODING 53
SWIDTH 11 0
DWIDTH 12 0
BBX 12 11 2 0
BITMAP
2010
3FE0
41C0
7E00
5F00
61C0
0120
7120
9120
7140
3F80
ENDCHAR

STARTCHAR char54
ENCODING 54
SWIDTH 17 0
DWIDTH 13 0
BBX 11 10 3 0
BITMAP
3FC0
5140
51C0
9F00
91C0
9160
9120
5120
3140
1F80
ENDCHAR

STARTCHAR char55
ENCODING 55
SWIDTH 11 0
DWIDTH 12 0
BBX 10 10 3 0
BITMAP
FFC0
80C0
FF80
8300
8500
0A00
1600
2400
2400
3C00
ENDCHAR

STARTCHAR char56
ENCODING 56
SWIDTH 17 0
DWIDTH 13 0
BBX 11 10 3 0
BITMAP
7FC0
A040
B840
8E40
41C0
7860
8720
8120
40E0
3F80
ENDCHAR

STARTCHAR char57
ENCODING 57
SWIDTH 17 0
DWIDTH 13 0
BBX 11 10 3 0
BITMAP
7F80
A140
A140
A120
E120
7320
3D20
5140
51C0
7F00
ENDCHAR

STARTCHAR char58
ENCODING 58
SWIDTH 30 0
DWIDTH 5 0
BBX 4 7 2 0
BITMAP
70
90
70
00
70
90
F0
ENDCHAR

STARTCHAR char59
ENCODING 59
SWIDTH 30 0
DWIDTH 5 0
BBX 4 9 2 -2
BITMAP
60
A0
E0
00
40
A0
E0
20
C0
ENDCHAR

STARTCHAR char60
ENCODING 60
SWIDTH 61 0
DWIDTH 10 0
BBX 7 7 1 0
BITMAP
06
18
E0
80
60
1C
02
ENDCHAR

STARTCHAR char61
ENCODING 61
SWIDTH 61 0
DWIDTH 10 0
BBX 9 4 2 2
BITMAP
FF80
0000
0000
FF80
ENDCHAR

STARTCHAR char62
ENCODING 62
SWIDTH 61 0
DWIDTH 10 0
BBX 7 7 1 0
BITMAP
C0
30
0C
02
1C
60
80
ENDCHAR

STARTCHAR char63
ENCODING 63
SWIDTH 55 0
DWIDTH 9 0
BBX 7 10 2 0
BITMAP
7C
E6
AE
6A
16
1C
10
30
48
78
ENDCHAR

STARTCHAR char64
ENCODING 64
SWIDTH 36 0
DWIDTH 16 0
BBX 11 11 2 0
BITMAP
0F00
3180
4040
4FA0
9120
A120
A340
B240
5F80
20C0
1F00
ENDCHAR

STARTCHAR char65
ENCODING 65
SWIDTH 29 0
DWIDTH 15 0
BBX 15 10 2 0
BITMAP
0100
0280
0280
0640
0960
0920
0FB0
1090
3048
79FC
ENDCHAR

STARTCHAR char66
ENCODING 66
SWIDTH 29 0
DWIDTH 15 0
BBX 13 10 3 0
BITMAP
FFF0
2448
2448
24D8
2760
2490
2448
2448
2448
7FF0
ENDCHAR

STARTCHAR char67
ENCODING 67
SWIDTH 23 0
DWIDTH 14 0
BBX 12 10 3 0
BITMAP
3870
4870
5010
9010
9000
9000
9010
5810
2860
1F80
ENDCHAR

STARTCHAR char68
ENCODING 68
SWIDTH 36 0
DWIDTH 16 0
BBX 14 10 3 0
BITMAP
FFF0
2448
242C
2424
2424
2424
2424
2428
2438
7FE0
ENDCHAR

STARTCHAR char69
ENCODING 69
SWIDTH 29 0
DWIDTH 15 0
BBX 13 10 3 0
BITMAP
3FF0
2470
2410
2490
2780
2580
2480
2418
2438
FFF8
ENDCHAR

STARTCHAR char70
ENCODING 70
SWIDTH 23 0
DWIDTH 14 0
BBX 12 10 3 0
BITMAP
7FF0
2870
2810
2980
2E80
2980
2880
2800
2800
FF00
ENDCHAR

STARTCHAR char71
ENCODING 71
SWIDTH 36 0
DWIDTH 16 0
BBX 15 10 3 0
BITMAP
1FF0
6810
5810
9000
9000
91FC
9048
4848
2C48
1FF8
ENDCHAR

STARTCHAR char72
ENCODING 72
SWIDTH 48 0
DWIDTH 18 0
BBX 17 10 3 0
BITMAP
FF7F80
242400
242400
242400
27E400
242400
242400
242400
242400
FE5E00
ENDCHAR

STARTCHAR char73
ENCODING 73
SWIDTH 55 0
DWIDTH 9 0
BBX 8 10 2 0
BITMAP
3F
24
24
24
24
24
24
24
24
FF
ENDCHAR

STARTCHAR char74
ENCODING 74
SWIDTH 5 0
DWIDTH 11 0
BBX 11 10 2 0
BITMAP
3FE0
0900
0900
0900
0900
0900
6900
A900
A900
7E00
ENDCHAR

STARTCHAR char75
ENCODING 75
SWIDTH 48 0
DWIDTH 18 0
BBX 17 10 3 0
BITMAP
3C3F80
241800
242000
244000
25E000
273000
249800
244800
242400
FF7F00
ENDCHAR

STARTCHAR char76
ENCODING 76
SWIDTH 23 0
DWIDTH 14 0
BBX 12 10 3 0
BITMAP
FF00
2800
2800
2800
2800
2800
2810
2810
2830
3FF0
ENDCHAR

STARTCHAR char77
ENCODING 77
SWIDTH 60 0
DWIDTH 20 0
BBX 19 10 3 0
BITMAP
FE07E0
160A80
1B0A80
199480
159480
12E480
124480
114480
314480
FC8FE0
ENDCHAR

STARTCHAR char78
ENCODING 78
SWIDTH 36 0
DWIDTH 16 0
BBX 15 10 3 0
BITMAP
7C18
2208
3908
24C8
2268
2130
2090
2050
2070
F810
ENDCHAR

STARTCHAR char79
ENCODING 79
SWIDTH 36 0
DWIDTH 16 0
BBX 14 10 3 0
BITMAP
3FF0
2828
482C
8824
8824
8824
4824
442C
3438
1FF0
ENDCHAR

STARTCHAR char80
ENCODING 80
SWIDTH 29 0
DWIDTH 15 0
BBX 14 10 3 0
BITMAP
FFF8
242C
2424
2424
2438
27E0
2400
2400
2400
7E00
ENDCHAR

STARTCHAR char81
ENCODING 81
SWIDTH 36 0
DWIDTH 16 0
BBX 16 12 3 -2
BITMAP
3FF0
2828
482C
8824
8824
8824
89E4
45AC
2489
1C8E
07E6
001C
ENDCHAR

STARTCHAR char82
ENCODING 82
SWIDTH 29 0
DWIDTH 15 0
BBX 14 10 3 0
BITMAP
3FF0
2448
2448
25F8
2620
2560
2520
24B0
24D0
FE7C
ENDCHAR

STARTCHAR char83
ENCODING 83
SWIDTH 29 0
DWIDTH 15 0
BBX 13 10 3 0
BITMAP
3FF0
6070
B010
9F80
40F0
3C18
43C8
6028
7018
CFF0
ENDCHAR

STARTCHAR char84
ENCODING 84
SWIDTH 23 0
DWIDTH 14 0
BBX 14 10 2 0
BITMAP
FFFC
F28C
C284
8484
0480
0480
0480
0480
0480
1FC0
ENDCHAR

STARTCHAR char85
ENCODING 85
SWIDTH 29 0
DWIDTH 15 0
BBX 14 10 3 0
BITMAP
FF78
4830
4810
4810
4810
4810
4810
4810
2C30
1FC0
ENDCHAR

STARTCHAR char86
ENCODING 86
SWIDTH 29 0
DWIDTH 15 0
BBX 16 11 2 -1
BITMAP
FFBF
120C
1108
0910
0890
04A0
04E0
0240
0180
0180
0080
ENDCHAR

STARTCHAR char87
ENCODING 87
SWIDTH 10 0
DWIDTH 22 0
BBX 22 10 3 0
BITMAP
FF7F7C
161430
121220
0B2B20
092920
05C5C0
048480
028280
028280
038300
ENDCHAR

STARTCHAR char88
ENCODING 88
SWIDTH 36 0
DWIDTH 16 0
BBX 16 10 2 0
BITMAP
7FBF
1710
0B20
09C0
04C0
0260
0530
0898
184C
FC7E
ENDCHAR

STARTCHAR char89
ENCODING 89
SWIDTH 29 0
DWIDTH 15 0
BBX 15 10 2 0
BITMAP
FFBE
2218
1310
0990
04E0
0240
0240
0240
0240
07F0
ENDCHAR

STARTCHAR char90
ENCODING 90
SWIDTH 17 0
DWIDTH 13 0
BBX 12 10 2 0
BITMAP
7FF0
6220
4260
04C0
0980
1100
2210
4670
4C90
FFF0
ENDCHAR

STARTCHAR char91
ENCODING 91
SWIDTH 43 0
DWIDTH 7 0
BBX 5 10 3 0
BITMAP
F8
A0
A0
A0
A0
A0
A0
A0
A0
E0
ENDCHAR

STARTCHAR char92
ENCODING 92
SWIDTH 24 0
DWIDTH 4 0
BBX 4 11 0 0
BITMAP
80
80
80
40
40
40
20
20
20
10
10
ENDCHAR

STARTCHAR char93
ENCODING 93
SWIDTH 43 0
DWIDTH 7 0
BBX 4 10 2 0
BITMAP
F0
50
50
50
50
50
50
50
50
F0
ENDCHAR

STARTCHAR char94
ENCODING 94
SWIDTH 0 0
DWIDTH 0 0
BBX 5 3 -2 11
BITMAP
70
B0
B8
ENDCHAR

STARTCHAR char95
ENCODING 95
SWIDTH 55 0
DWIDTH 9 0
BBX 8 1 0 -2
BITMAP
FF
ENDCHAR

STARTCHAR char96
ENCODING 96
SWIDTH 0 0
DWIDTH 0 0
BBX 3 3 -2 9
BITMAP
C0
40
20
ENDCHAR

STARTCHAR char97
ENCODING 97
SWIDTH 17 0
DWIDTH 13 0
BBX 12 9 2 0
BITMAP
0200
0600
0700
0D00
0C80
1280
3E40
2140
F9F0
ENDCHAR

STARTCHAR char98
ENCODING 98
SWIDTH 17 0
DWIDTH 13 0
BBX 11 9 2 0
BITMAP
FFC0
28A0
28A0
28A0
2F40
28A0
28A0
28A0
3FC0
ENDCHAR

STARTCHAR char99
ENCODING 99
SWIDTH 5 0
DWIDTH 11 0
BBX 10 9 2 0
BITMAP
1F40
68C0
50C0
9040
9000
9000
5040
38C0
1F00
ENDCHAR

STARTCHAR char100
ENCODING 100
SWIDTH 23 0
DWIDTH 14 0
BBX 12 9 3 0
BITMAP
FF80
5140
50A0
5090
5090
5090
50B0
50E0
FF80
ENDCHAR

STARTCHAR char101
ENCODING 101
SWIDTH 11 0
DWIDTH 12 0
BBX 11 9 2 0
BITMAP
FFE0
2860
2820
2920
2F00
2900
2820
2860
3FE0
ENDCHAR

STARTCHAR char102
ENCODING 102
SWIDTH 5 0
DWIDTH 11 0
BBX 11 9 2 0
BITMAP
FFE0
28E0
2820
2920
2F00
2900
2800
2800
7C00
ENDCHAR

STARTCHAR char103
ENCODING 103
SWIDTH 17 0
DWIDTH 13 0
BBX 13 9 2 0
BITMAP
0F60
38A0
4840
9020
93F8
90B0
50A0
28A0
1FE0
ENDCHAR

STARTCHAR char104
ENCODING 104
SWIDTH 29 0
DWIDTH 15 0
BBX 13 9 3 0
BITMAP
FDF8
48A0
48A0
48A0
4FA0
48A0
48A0
48A0
FDF8
ENDCHAR

STARTCHAR char105
ENCODING 105
SWIDTH 49 0
DWIDTH 8 0
BBX 7 9 2 0
BITMAP
FE
48
48
48
48
48
48
48
78
ENDCHAR

STARTCHAR char106
ENCODING 106
SWIDTH 55 0
DWIDTH 9 0
BBX 9 9 1 0
BITMAP
3F80
0900
0900
0900
0900
2900
E900
A900
7E00
ENDCHAR

STARTCHAR char107
ENCODING 107
SWIDTH 29 0
DWIDTH 15 0
BBX 14 9 3 0
BITMAP
FFF8
48E0
4880
4900
4F80
4AC0
4940
48A0
FDFC
ENDCHAR

STARTCHAR char108
ENCODING 108
SWIDTH 11 0
DWIDTH 12 0
BBX 11 9 2 0
BITMAP
FE00
2800
2800
2800
2800
2800
2820
28E0
3FE0
ENDCHAR

STARTCHAR char109
ENCODING 109
SWIDTH 42 0
DWIDTH 17 0
BBX 16 9 3 0
BITMAP
F83F
3C24
3464
3664
2A64
29A4
2724
2324
F3FF
ENDCHAR

STARTCHAR char110
ENCODING 110
SWIDTH 17 0
DWIDTH 13 0
BBX 13 9 2 0
BITMAP
FCF8
2620
3320
2DA0
22E0
2160
20A0
2060
F820
ENDCHAR

STARTCHAR char111
ENCODING 111
SWIDTH 17 0
DWIDTH 13 0
BBX 12 9 2 0
BITMAP
0F80
38E0
58A0
9090
9090
9090
5090
28A0
1FC0
ENDCHAR

STARTCHAR char112
ENCODING 112
SWIDTH 17 0
DWIDTH 13 0
BBX 12 9 2 0
BITMAP
FFC0
2860
2850
2850
28A0
2FC0
2800
2800
FE00
ENDCHAR

STARTCHAR char113
ENCODING 113
SWIDTH 17 0
DWIDTH 13 0
BBX 12 10 3 -1
BITMAP
1F00
71C0
B160
A120
A120
A320
B520
5250
3F70
00E0
ENDCHAR

STARTCHAR char114
ENCODING 114
SWIDTH 17 0
DWIDTH 13 0
BBX 12 9 2 0
BITMAP
FFC0
28A0
28A0
2BE0
2C80
2A40
2940
29C0
FCF0
ENDCHAR

STARTCHAR char115
ENCODING 115
SWIDTH 11 0
DWIDTH 12 0
BBX 10 9 3 0
BITMAP
3E40
4180
C080
BC80
C380
3E40
4140
C0C0
FF80
ENDCHAR

STARTCHAR char116
ENCODING 116
SWIDTH 11 0
DWIDTH 12 0
BBX 11 9 2 0
BITMAP
FFE0
E660
C620
8A20
0A00
0A00
0A00
0A00
3F80
ENDCHAR

STARTCHAR char117
ENCODING 117
SWIDTH 17 0
DWIDTH 13 0
BBX 12 9 2 0
BITMAP
FEF0
2820
2820
2820
2820
2820
2820
2860
1F80
ENDCHAR

STARTCHAR char118
ENCODING 118
SWIDTH 17 0
DWIDTH 13 0
BBX 13 9 2 0
BITMAP
FEF8
2850
2420
1440
1240
0B80
0500
0500
0200
ENDCHAR

STARTCHAR char119
ENCODING 119
SWIDTH 48 0
DWIDTH 18 0
BBX 16 9 3 0
BITMAP
FDF7
48A3
2892
24D2
154A
132C
0A24
0A18
0E18
ENDCHAR

STARTCHAR char120
ENCODING 120
SWIDTH 17 0
DWIDTH 13 0
BBX 13 9 2 0
BITMAP
FEF8
2440
1280
0900
0500
0480
0A40
1120
FCF8
ENDCHAR

STARTCHAR char121
ENCODING 121
SWIDTH 17 0
DWIDTH 13 0
BBX 13 9 2 0
BITMAP
FEF8
2860
2440
1280
1380
0900
0900
0900
1FC0
ENDCHAR

STARTCHAR char122
ENCODING 122
SWIDTH 5 0
DWIDTH 11 0
BBX 10 9 2 0
BITMAP
FFC0
E480
C900
9300
2200
4440
4840
91C0
FFC0
ENDCHAR

STARTCHAR char123
ENCODING 123
SWIDTH 30 0
DWIDTH 5 0
BBX 3 13 1 -3
BITMAP
60
40
40
40
40
80
80
40
40
40
40
40
20
ENDCHAR

STARTCHAR char124
ENCODING 124
SWIDTH 24 0
DWIDTH 4 0
BBX 1 11 1 0
BITMAP
80
80
80
80
80
80
80
80
80
80
80
ENDCHAR

STARTCHAR char125
ENCODING 125
SWIDTH 30 0
DWIDTH 5 0
BBX 3 13 1 -3
BITMAP
C0
40
40
40
40
20
20
40
40
40
40
40
80
ENDCHAR

STARTCHAR char126
ENCODING 126
SWIDTH 0 0
DWIDTH 0 0
BBX 8 3 -4 11
BITMAP
71
FD
8E
ENDCHAR

STARTCHAR char128
ENCODING 128
SWIDTH 23 0
DWIDTH 14 0
BBX 14 10 1 0
BITMAP
0E1C
121C
1404
7F84
2400
3F80
2404
1604
0A18
07E0
ENDCHAR

STARTCHAR char130
ENCODING 130
SWIDTH 30 0
DWIDTH 5 0
BBX 3 5 1 -2
BITMAP
40
A0
E0
20
C0
ENDCHAR

STARTCHAR char131
ENCODING 131
SWIDTH 0 0
DWIDTH 0 0
BBX 5 3 -2 11
BITMAP
70
B0
B8
ENDCHAR

STARTCHAR char132
ENCODING 132
SWIDTH 43 0
DWIDTH 7 0
BBX 7 5 1 -2
BITMAP
2C
6A
6A
26
4C
ENDCHAR

STARTCHAR char133
ENCODING 133
SWIDTH 36 0
DWIDTH 16 0
BBX 12 2 1 0
BITMAP
C630
C630
ENDCHAR

STARTCHAR char134
ENCODING 134
SWIDTH 55 0
DWIDTH 9 0
BBX 7 7 2 2
BITMAP
38
92
D6
BE
D2
92
3C
ENDCHAR

STARTCHAR char136
ENCODING 136
SWIDTH 0 0
DWIDTH 0 0
BBX 5 3 -2 9
BITMAP
60
B0
B0
ENDCHAR

STARTCHAR char139
ENCODING 139
SWIDTH 30 0
DWIDTH 5 0
BBX 3 4 1 2
BITMAP
60
C0
C0
60
ENDCHAR

STARTCHAR char140
ENCODING 140
SWIDTH 16 0
DWIDTH 23 0
BBX 21 10 4 0
BITMAP
3FEFF8
282418
482408
8824C0
882740
8824C0
882448
482408
342438
0FFFF8
ENDCHAR

STARTCHAR char142
ENCODING 142
SWIDTH 29 0
DWIDTH 15 0
BBX 0 0 0 0
BITMAP
ENDCHAR

STARTCHAR char144
ENCODING 144
SWIDTH 29 0
DWIDTH 15 0
BBX 0 0 0 0
BITMAP
ENDCHAR

STARTCHAR char145
ENCODING 145
SWIDTH 24 0
DWIDTH 4 0
BBX 3 3 1 7
BITMAP
40
A0
E0
ENDCHAR

STARTCHAR char146
ENCODING 146
SWIDTH 24 0
DWIDTH 4 0
BBX 3 3 1 7
BITMAP
E0
E0
20
ENDCHAR

STARTCHAR char147
ENCODING 147
SWIDTH 43 0
DWIDTH 7 0
BBX 7 4 1 6
BITMAP
44
AA
AA
44
ENDCHAR

STARTCHAR char148
ENCODING 148
SWIDTH 43 0
DWIDTH 7 0
BBX 7 3 1 7
BITMAP
EE
6A
26
ENDCHAR

STARTCHAR char149
ENCODING 149
SWIDTH 30 0
DWIDTH 5 0
BBX 4 4 0 3
BITMAP
60
F0
F0
60
ENDCHAR

STARTCHAR char150
ENCODING 150
SWIDTH 23 0
DWIDTH 14 0
BBX 11 1 3 4
BITMAP
FFE0
ENDCHAR

STARTCHAR char151
ENCODING 151
SWIDTH 61 0
DWIDTH 10 0
BBX 9 1 2 4
BITMAP
FF80
ENDCHAR

STARTCHAR char152
ENCODING 152
SWIDTH 0 0
DWIDTH 0 0
BBX 8 3 -4 9
BITMAP
31
7E
4C
ENDCHAR

STARTCHAR char153
ENCODING 153
SWIDTH 4 0
DWIDTH 21 0
BBX 18 9 4 6
BITMAP
FEC1C0
92E180
10E180
10A280
10B280
109480
109C80
108880
79C9C0
ENDCHAR

STARTCHAR char155
ENCODING 155
SWIDTH 30 0
DWIDTH 5 0
BBX 3 4 1 2
BITMAP
C0
60
60
80
ENDCHAR

STARTCHAR char156
ENCODING 156
SWIDTH 54 0
DWIDTH 19 0
BBX 18 9 3 0
BITMAP
0FF000
385FC0
585040
905640
905E00
905200
505040
2851C0
1FFFC0
ENDCHAR

STARTCHAR char159
ENCODING 159
SWIDTH 29 0
DWIDTH 15 0
BBX 15 14 2 0
BITMAP
0440
0AA0
06E0
0000
FFBC
2218
1310
09A0
04A0
02C0
02C0
02C0
02C0
07F0
ENDCHAR

STARTCHAR char160
ENCODING 160
SWIDTH 11 0
DWIDTH 12 0
BBX 0 0 0 0
BITMAP
ENDCHAR

STARTCHAR char161
ENCODING 161
SWIDTH 30 0
DWIDTH 5 0
BBX 4 10 1 0
BITMAP
F0
90
70
20
60
60
70
90
90
F0
ENDCHAR

STARTCHAR char162
ENCODING 162
SWIDTH 5 0
DWIDTH 11 0
BBX 10 12 2 -2
BITMAP
0200
1F40
6AC0
52C0
9240
9200
9200
5240
32C0
1F80
0200
0200
ENDCHAR

STARTCHAR char163
ENCODING 163
SWIDTH 23 0
DWIDTH 14 0
BBX 13 10 2 0
BITMAP
1FF8
1448
2468
2410
2400
67C0
2408
2418
2428
FFF8
ENDCHAR

STARTCHAR char164
ENCODING 164
SWIDTH 0 0
DWIDTH 0 0
BBX 4 3 -1 11
BITMAP
60
40
40
ENDCHAR

STARTCHAR char165
ENCODING 165
SWIDTH 0 0
DWIDTH 0 0
BBX 6 3 -3 11
BITMAP
64
58
30
ENDCHAR

STARTCHAR char166
ENCODING 166
SWIDTH 29 0
DWIDTH 15 0
BBX 0 0 0 0
BITMAP
ENDCHAR

STARTCHAR char167
ENCODING 167
SWIDTH 11 0
DWIDTH 12 0
BBX 10 15 2 -4
BITMAP
0080
3F80
6080
B800
4F80
2040
7F40
60C0
7EC0
43C0
3C40
4340
60C0
B0C0
EF00
ENDCHAR

STARTCHAR char168
ENCODING 168
SWIDTH 0 0
DWIDTH 0 0
BBX 6 2 -3 9
BITMAP
7C
7C
ENDCHAR

STARTCHAR char169
ENCODING 169
SWIDTH 48 0
DWIDTH 18 0
BBX 15 15 4 0
BITMAP
07C0
1830
2008
43E4
4464
8422
8802
8802
8802
8802
8422
43C4
2008
1018
0FE0
ENDCHAR

STARTCHAR char170
ENCODING 170
SWIDTH 0 0
DWIDTH 0 0
BBX 6 3 -3 11
BITMAP
48
B4
6C
ENDCHAR

STARTCHAR char171
ENCODING 171
SWIDTH 43 0
DWIDTH 7 0
BBX 6 5 1 2
BITMAP
24
48
50
28
24
ENDCHAR

STARTCHAR char172
ENCODING 172
SWIDTH 42 0
DWIDTH 17 0
BBX 14 6 3 0
BITMAP
FFFC
0004
0004
0004
0004
0004
ENDCHAR

STARTCHAR char174
ENCODING 174
SWIDTH 48 0
DWIDTH 18 0
BBX 15 15 4 0
BITMAP
07C0
1830
2008
4FC4
4464
8422
8462
8782
8582
84C2
8462
4E34
200C
3018
0FE0
ENDCHAR

STARTCHAR char176
ENCODING 176
SWIDTH 55 0
DWIDTH 9 0
BBX 7 7 2 8
BITMAP
3C
42
82
82
42
24
18
ENDCHAR

STARTCHAR char177
ENCODING 177
SWIDTH 17 0
DWIDTH 13 0
BBX 12 14 2 0
BITMAP
0200
0200
0200
0200
0200
FFF0
0200
0200
0200
0200
0200
0000
0000
FFF0
ENDCHAR

STARTCHAR char179
ENCODING 179
SWIDTH 29 0
DWIDTH 15 0
BBX 0 0 0 0
BITMAP
ENDCHAR

STARTCHAR char180
ENCODING 180
SWIDTH 0 0
DWIDTH 0 0
BBX 2 3 0 9
BITMAP
C0
80
80
ENDCHAR

STARTCHAR char181
ENCODING 181
SWIDTH 29 0
DWIDTH 15 0
BBX 0 0 0 0
BITMAP
ENDCHAR

STARTCHAR char182
ENCODING 182
SWIDTH 61 0
DWIDTH 10 0
BBX 7 12 1 -2
BITMAP
3E
64
E4
E4
64
24
24
24
24
24
24
24
ENDCHAR

STARTCHAR char183
ENCODING 183
SWIDTH 24 0
DWIDTH 4 0
BBX 1 1 2 4
BITMAP
80
ENDCHAR

STARTCHAR char184
ENCODING 184
SWIDTH 0 0
DWIDTH 0 0
BBX 3 3 -1 -3
BITMAP
60
A0
40
ENDCHAR

STARTCHAR char185
ENCODING 185
SWIDTH 29 0
DWIDTH 15 0
BBX 0 0 0 0
BITMAP
ENDCHAR

STARTCHAR char186
ENCODING 186
SWIDTH 0 0
DWIDTH 0 0
BBX 8 3 -4 11
BITMAP
71
FD
8E
ENDCHAR

STARTCHAR char187
ENCODING 187
SWIDTH 43 0
DWIDTH 7 0
BBX 5 5 2 2
BITMAP
90
48
48
48
B0
ENDCHAR

STARTCHAR char188
ENCODING 188
SWIDTH 29 0
DWIDTH 15 0
BBX 0 0 0 0
BITMAP
ENDCHAR

STARTCHAR char191
ENCODING 191
SWIDTH 55 0
DWIDTH 9 0
BBX 8 10 2 0
BITMAP
1C
2C
38
08
78
7A
FF
C9
C7
7C
ENDCHAR

STARTCHAR char192
ENCODING 192
SWIDTH 29 0
DWIDTH 15 0
BBX 15 14 2 0
BITMAP
0700
0100
0100
0080
0180
0280
02C0
0640
0960
0920
0FB0
1090
3048
79FC
ENDCHAR

STARTCHAR char193
ENCODING 193
SWIDTH 29 0
DWIDTH 15 0
BBX 15 14 2 0
BITMAP
00C0
01C0
0100
0080
0180
0280
02C0
0640
0960
0920
0FB0
1090
3048
79FC
ENDCHAR

STARTCHAR char194
ENCODING 194
SWIDTH 29 0
DWIDTH 15 0
BBX 15 14 2 0
BITMAP
01C0
0340
02E0
0080
0180
0280
02C0
0640
0960
0920
0FB0
1090
3048
79FC
ENDCHAR

STARTCHAR char195
ENCODING 195
SWIDTH 29 0
DWIDTH 15 0
BBX 15 14 2 0
BITMAP
0710
0FF0
08E0
0080
0180
0280
02C0
0640
0960
0920
0FB0
1090
3048
79FC
ENDCHAR

STARTCHAR char196
ENCODING 196
SWIDTH 29 0
DWIDTH 15 0
BBX 15 14 2 0
BITMAP
0440
0AA0
0640
0080
0180
0380
02C0
0640
0960
0920
0F30
1090
3048
FDFC
ENDCHAR

STARTCHAR char197
ENCODING 197
SWIDTH 29 0
DWIDTH 15 0
BBX 15 14 2 0
BITMAP
0180
0240
0180
0080
0180
0280
02C0
0640
0960
0920
0FB0
1090
3048
79FC
ENDCHAR

STARTCHAR char198
ENCODING 198
SWIDTH 10 0
DWIDTH 22 0
BBX 20 10 3 0
BITMAP
007FF0
00AC30
012C10
022D80
042E80
042980
0FE890
102810
302830
FCFFF0
ENDCHAR

STARTCHAR char199
ENCODING 199
SWIDTH 23 0
DWIDTH 14 0
BBX 12 13 3 -3
BITMAP
3FF0
4870
5010
9010
9000
9000
9010
5810
2860
1EC0
0700
0500
0200
ENDCHAR

STARTCHAR char200
ENCODING 200
SWIDTH 29 0
DWIDTH 15 0
BBX 13 14 3 0
BITMAP
0E00
0600
0200
0000
3FF8
2438
2418
2488
2780
2580
2480
2408
2438
FFF8
ENDCHAR

STARTCHAR char201
ENCODING 201
SWIDTH 29 0
DWIDTH 15 0
BBX 13 14 3 0
BITMAP
0380
0300
0200
0000
3FF8
2438
2418
2488
2780
2580
2480
2408
2438
FFF8
ENDCHAR

STARTCHAR char202
ENCODING 202
SWIDTH 29 0
DWIDTH 15 0
BBX 13 14 3 0
BITMAP
0700
0680
0980
0000
3FF8
2438
2418
2488
2780
2580
2480
2408
2438
FFF8
ENDCHAR

STARTCHAR char203
ENCODING 203
SWIDTH 29 0
DWIDTH 15 0
BBX 13 14 3 0
BITMAP
0880
1580
0D80
0000
3FF8
2C38
2C18
2C88
2F80
2D80
2C80
2C18
2C28
FFF8
ENDCHAR

STARTCHAR char204
ENCODING 204
SWIDTH 55 0
DWIDTH 9 0
BBX 8 14 2 0
BITMAP
30
18
08
00
3F
24
24
24
24
24
24
24
24
FF
ENDCHAR

STARTCHAR char205
ENCODING 205
SWIDTH 55 0
DWIDTH 9 0
BBX 8 14 2 0
BITMAP
0C
08
10
00
3F
24
24
24
24
24
24
24
24
FF
ENDCHAR

STARTCHAR char206
ENCODING 206
SWIDTH 55 0
DWIDTH 9 0
BBX 8 14 2 0
BITMAP
1C
2C
2E
00
3F
24
24
24
24
24
24
24
24
FF
ENDCHAR

STARTCHAR char207
ENCODING 207
SWIDTH 55 0
DWIDTH 9 0
BBX 8 14 2 0
BITMAP
24
5A
64
00
3F
2C
2C
2C
2C
2C
2C
2C
2C
FF
ENDCHAR

STARTCHAR char209
ENCODING 209
SWIDTH 36 0
DWIDTH 16 0
BBX 15 14 3 0
BITMAP
0620
1FA0
11C0
0000
7C18
2208
3908
24C8
2268
2130
2090
2050
2070
F810
ENDCHAR

STARTCHAR char210
ENCODING 210
SWIDTH 36 0
DWIDTH 16 0
BBX 14 14 3 0
BITMAP
0700
0300
0100
0000
3FF0
2828
482C
8824
8824
8824
4824
442C
3438
1FF0
ENDCHAR

STARTCHAR char211
ENCODING 211
SWIDTH 36 0
DWIDTH 16 0
BBX 14 14 3 0
BITMAP
01C0
0180
0100
0000
3FF0
2828
482C
8824
8824
8824
4824
442C
3438
1FF0
ENDCHAR

STARTCHAR char212
ENCODING 212
SWIDTH 36 0
DWIDTH 16 0
BBX 14 14 3 0
BITMAP
0380
0540
04E0
0000
3FF0
2828
482C
8824
8824
8824
4824
442C
3438
1FF0
ENDCHAR

STARTCHAR char213
ENCODING 213
SWIDTH 36 0
DWIDTH 16 0
BBX 14 14 3 0
BITMAP
0710
0FA0
09C0
0000
3FF0
2828
482C
8824
8824
8824
4824
442C
3438
1FF0
ENDCHAR

STARTCHAR char214
ENCODING 214
SWIDTH 36 0
DWIDTH 16 0
BBX 14 15 3 -1
BITMAP
0440
0AA0
06C0
0000
3FF0
2828
482C
9824
9824
9824
8824
482C
2848
1C70
07C0
ENDCHAR

STARTCHAR char216
ENCODING 216
SWIDTH 36 0
DWIDTH 16 0
BBX 14 12 3 -1
BITMAP
0008
3FF0
2848
4868
98A4
9924
9A24
8C24
482C
2858
5FF0
4000
ENDCHAR

STARTCHAR char217
ENCODING 217
SWIDTH 29 0
DWIDTH 15 0
BBX 14 14 3 0
BITMAP
0E00
0200
0200
0000
FF78
4830
4810
4810
4810
4810
4810
4810
2C30
1FC0
ENDCHAR

STARTCHAR char218
ENCODING 218
SWIDTH 29 0
DWIDTH 15 0
BBX 14 14 3 0
BITMAP
0180
0300
0200
0000
FF78
4830
4810
4810
4810
4810
4810
4810
2C30
1FC0
ENDCHAR

STARTCHAR char219
ENCODING 219
SWIDTH 29 0
DWIDTH 15 0
BBX 14 14 3 0
BITMAP
0300
0680
09C0
0000
FF78
4830
4810
4810
4810
4810
4810
4810
2C30
1FC0
ENDCHAR

STARTCHAR char220
ENCODING 220
SWIDTH 29 0
DWIDTH 15 0
BBX 14 14 3 0
BITMAP
0200
06E0
06E0
0000
FF78
4810
4810
4810
4810
4810
4810
4810
2C30
1FC0
ENDCHAR

STARTCHAR char223
ENCODING 223
SWIDTH 10 0
DWIDTH 22 0
BBX 22 9 1 0
BITMAP
1F23E4
60C41C
A04C04
9F0BE0
60C41C
5F27E4
40A41C
A06A04
FFC5F8
ENDCHAR

STARTCHAR char224
ENCODING 224
SWIDTH 17 0
DWIDTH 13 0
BBX 12 12 2 0
BITMAP
0C00
0600
0200
0200
0600
0700
1D00
1480
1280
3E40
2140
F9F0
ENDCHAR

STARTCHAR char225
ENCODING 225
SWIDTH 17 0
DWIDTH 13 0
BBX 12 12 2 0
BITMAP
0300
0200
0200
0200
0600
0700
1D00
1480
1280
3E40
2140
F9F0
ENDCHAR

STARTCHAR char226
ENCODING 226
SWIDTH 17 0
DWIDTH 13 0
BBX 12 12 2 0
BITMAP
0700
0B00
0B80
0200
0600
0700
1D00
1480
1280
3E40
2140
F9F0
ENDCHAR

STARTCHAR char227
ENCODING 227
SWIDTH 17 0
DWIDTH 13 0
BBX 12 12 2 0
BITMAP
0640
1F80
1380
0200
0600
0700
0D00
0C80
1280
3E40
2140
F9F0
ENDCHAR

STARTCHAR char228
ENCODING 228
SWIDTH 17 0
DWIDTH 13 0
BBX 12 11 2 0
BITMAP
1F80
1D80
0200
0600
0500
1D00
1480
1280
3E40
2140
F3E0
ENDCHAR

STARTCHAR char229
ENCODING 229
SWIDTH 17 0
DWIDTH 13 0
BBX 12 12 2 0
BITMAP
0200
0500
0600
0200
0600
0700
1D00
1480
1280
3E40
2140
FBF0
ENDCHAR

STARTCHAR char230
ENCODING 230
SWIDTH 54 0
DWIDTH 19 0
BBX 17 9 3 0
BITMAP
03FF80
02A380
02A080
04AC80
08BC00
08A400
1FA080
20A380
F3FF80
ENDCHAR

STARTCHAR char231
ENCODING 231
SWIDTH 5 0
DWIDTH 11 0
BBX 10 12 2 -3
BITMAP
1F40
68C0
50C0
9040
9000
9000
5040
38C0
1F00
0600
0E00
0200
ENDCHAR

STARTCHAR char232
ENCODING 232
SWIDTH 11 0
DWIDTH 12 0
BBX 11 12 2 0
BITMAP
0C00
0400
0400
FFE0
2860
2820
2920
2F00
2900
2820
2860
3FE0
ENDCHAR

STARTCHAR char233
ENCODING 233
SWIDTH 11 0
DWIDTH 12 0
BBX 11 12 2 0
BITMAP
0300
0200
0400
FFE0
2860
2820
2920
2F00
2900
2820
2860
3FE0
ENDCHAR

STARTCHAR char234
ENCODING 234
SWIDTH 11 0
DWIDTH 12 0
BBX 11 12 2 0
BITMAP
0600
0B00
0B00
FFE0
28E0
2820
2920
2F00
2900
2820
2860
3FE0
ENDCHAR

STARTCHAR char235
ENCODING 235
SWIDTH 11 0
DWIDTH 12 0
BBX 11 12 2 0
BITMAP
0900
1F00
0900
FFE0
28E0
2820
2920
2E80
2900
2820
2860
3FE0
ENDCHAR

STARTCHAR char236
ENCODING 236
SWIDTH 49 0
DWIDTH 8 0
BBX 6 12 2 0
BITMAP
60
20
20
FC
50
50
50
50
50
50
50
78
ENDCHAR

STARTCHAR char237
ENCODING 237
SWIDTH 49 0
DWIDTH 8 0
BBX 6 12 2 0
BITMAP
20
60
40
BC
50
50
50
50
50
50
50
78
ENDCHAR

STARTCHAR char238
ENCODING 238
SWIDTH 49 0
DWIDTH 8 0
BBX 6 12 2 0
BITMAP
30
50
58
BC
50
50
50
50
50
50
50
78
ENDCHAR

STARTCHAR char239
ENCODING 239
SWIDTH 49 0
DWIDTH 8 0
BBX 6 12 2 0
BITMAP
48
D8
48
BC
58
50
50
50
50
50
50
78
ENDCHAR

STARTCHAR char241
ENCODING 241
SWIDTH 17 0
DWIDTH 13 0
BBX 13 12 2 0
BITMAP
0E40
1F40
1180
FCF8
2620
3320
2DA0
22E0
2160
20A0
2060
F820
ENDCHAR

STARTCHAR char242
ENCODING 242
SWIDTH 17 0
DWIDTH 13 0
BBX 12 12 2 0
BITMAP
0E00
0600
0200
0F80
38E0
58A0
9090
9090
9090
5090
28A0
1FC0
ENDCHAR

STARTCHAR char243
ENCODING 243
SWIDTH 17 0
DWIDTH 13 0
BBX 12 12 2 0
BITMAP
0300
0300
0200
0F80
38E0
58A0
9090
9090
9090
5090
28A0
1FC0
ENDCHAR

STARTCHAR char244
ENCODING 244
SWIDTH 17 0
DWIDTH 13 0
BBX 12 12 2 0
BITMAP
0300
0700
0580
0F80
38E0
58A0
9090
9090
9090
5090
28A0
1FC0
ENDCHAR

STARTCHAR char245
ENCODING 245
SWIDTH 17 0
DWIDTH 13 0
BBX 12 12 2 0
BITMAP
0E40
1F40
1180
0F80
38E0
58A0
9090
9090
9090
5090
28A0
1FC0
ENDCHAR

STARTCHAR char246
ENCODING 246
SWIDTH 17 0
DWIDTH 13 0
BBX 12 12 2 0
BITMAP
0D00
0D80
0480
0F80
38E0
48B0
9090
9090
9090
4890
28A0
1FC0
ENDCHAR

STARTCHAR char247
ENCODING 247
SWIDTH 17 0
DWIDTH 13 0
BBX 12 8 2 2
BITMAP
0600
0600
0000
0000
FFF0
0000
0600
0600
ENDCHAR

STARTCHAR char248
ENCODING 248
SWIDTH 17 0
DWIDTH 13 0
BBX 12 10 2 -1
BITMAP
0FD0
38A0
58A0
9190
9290
9490
5890
48A0
FFC0
4000
ENDCHAR

STARTCHAR char249
ENCODING 249
SWIDTH 17 0
DWIDTH 13 0
BBX 12 12 2 0
BITMAP
0C00
0600
0200
FEF0
2820
2820
2820
2820
2820
2820
2860
1F80
ENDCHAR

STARTCHAR char250
ENCODING 250
SWIDTH 17 0
DWIDTH 13 0
BBX 12 12 2 0
BITMAP
0300
0200
0200
FEF0
2820
2820
2820
2820
2820
2820
2860
1F80
ENDCHAR

STARTCHAR char251
ENCODING 251
SWIDTH 17 0
DWIDTH 13 0
BBX 12 12 2 0
BITMAP
0700
0B00
0B80
FEF0
2820
2820
2820
2820
2820
2820
2860
1F80
ENDCHAR

STARTCHAR char252
ENCODING 252
SWIDTH 17 0
DWIDTH 13 0
BBX 12 12 2 0
BITMAP
0480
0B40
0480
FEF0
2820
2820
2820
2820
2820
2820
2820
1FC0
ENDCHAR

STARTCHAR char255
ENCODING 255
SWIDTH 17 0
DWIDTH 13 0
BBX 12 12 2 0
BITMAP
0900
1E80
0900
FEF0
2C60
2440
1680
1280
0B00
0B00
0B00
1FC0
ENDCHAR
ENDFONT
